HIERARCHY
ROOT Hips
{
	OFFSET -13.091600 -28.302996 44.698402
	CHANNELS 6 Xposition Yposition Zposition Zrotation Xrotation Yrotation
	JOINT Chest
	{
		OFFSET -0.673000 0.623899 5.369202
		CHANNELS 6 Xposition Yposition Zposition Zrotation Xrotation Yrotation
		JOINT Chest2
		{
			OFFSET 0.000000 0.000000 4.415001
			CHANNELS 6 Xposition Yposition Zposition Zrotation Xrotation Yrotation
			JOINT Neck
			{
				OFFSET 0.000000 0.000002 10.273300
				CHANNELS 6 Xposition Yposition Zposition Zrotation Xrotation Yrotation
				JOINT Head
				{
					OFFSET 0.000000 0.000000 2.173897
					CHANNELS 6 Xposition Yposition Zposition Zrotation Xrotation Yrotation
					End Site
					{
						OFFSET 0.000000 0.000000 9.961800
					}
				}
			}
			JOINT LeftCollar
			{
				OFFSET 2.359900 -0.565201 5.928101
				CHANNELS 6 Xposition Yposition Zposition Zrotation Xrotation Yrotation
				JOINT LeftShoulder
				{
					OFFSET 5.443700 0.000000 0.000000
					CHANNELS 6 Xposition Yposition Zposition Zrotation Xrotation Yrotation
					JOINT LeftElbow
					{
						OFFSET 0.000000 0.000000 -10.615799
						CHANNELS 6 Xposition Yposition Zposition Zrotation Xrotation Yrotation
						JOINT LeftWrist
						{
							OFFSET 0.000000 -0.000002 -13.110302
							CHANNELS 6 Xposition Yposition Zposition Zrotation Xrotation Yrotation
							End Site
							{
								OFFSET 0.000000 0.000000 -2.173901
							}
						}
					}
				}
			}
			JOINT RightCollar
			{
				OFFSET -2.636600 -1.718800 6.889698
				CHANNELS 6 Xposition Yposition Zposition Zrotation Xrotation Yrotation
				JOINT RightShoulder
				{
					OFFSET -4.139101 0.000000 0.000000
					CHANNELS 6 Xposition Yposition Zposition Zrotation Xrotation Yrotation
					JOINT RightElbow
					{
						OFFSET 0.000000 0.000000 -10.471802
						CHANNELS 6 Xposition Yposition Zposition Zrotation Xrotation Yrotation
						JOINT RightWrist
						{
							OFFSET 0.000000 0.000000 -12.281898
							CHANNELS 6 Xposition Yposition Zposition Zrotation Xrotation Yrotation
							End Site
							{
								OFFSET 0.000000 -0.000002 -2.173901
							}
						}
					}
				}
			}
		}
	}
	JOINT LeftHip
	{
		OFFSET 2.273400 0.176701 -2.518002
		CHANNELS 6 Xposition Yposition Zposition Zrotation Xrotation Yrotation
		JOINT LeftKnee
		{
			OFFSET 0.000000 -0.000002 -20.456402
			CHANNELS 6 Xposition Yposition Zposition Zrotation Xrotation Yrotation
			JOINT LeftAnkle
			{
				OFFSET 0.000000 -0.000002 -16.635300
				CHANNELS 6 Xposition Yposition Zposition Zrotation Xrotation Yrotation
				End Site
				{
					OFFSET 0.000000 -8.812399 0.000001
				}
			}
		}
	}
	JOINT RightHip
	{
		OFFSET -1.914800 0.018101 -2.699299
		CHANNELS 6 Xposition Yposition Zposition Zrotation Xrotation Yrotation
		JOINT RightKnee
		{
			OFFSET 0.000000 -0.000002 -20.148901
			CHANNELS 6 Xposition Yposition Zposition Zrotation Xrotation Yrotation
			JOINT RightAnkle
			{
				OFFSET 0.000000 -0.000002 -16.838301
				CHANNELS 6 Xposition Yposition Zposition Zrotation Xrotation Yrotation
				End Site
				{
					OFFSET 0.000000 -8.328398 0.000001
				}
			}
		}
	}
}
MOTION
Frames: 4
Frame Time: 0.041667
-12.708799 -19.580496 32.159500 424.205455 39.818145 -3.946678 -0.673003 0.623898 5.369215 24.292369 14.742402 -2.664983 -0.000003 0.000006 4.415000 -1.030905 -5.389683 -0.643793 -0.000006 -0.000003 10.273313 -36.317758 -10.969977 -2.663984 -0.000000 -0.000004 2.173901 -3.176435 -6.772286 -6.069899 2.359899 -0.565207 5.928102 11.662966 -1.972602 -20.459734 5.443695 0.000003 0.000000 132.992922 187.708543 -301.669511 -0.000005 0.000005 -10.615796 232.392214 -116.708631 218.133798 -0.000003 -0.000000 -13.110307 -248.682516 3.852772 42.822247 -2.636608 -1.718806 6.889708 13.224216 9.611812 -19.672546 -4.139099 -0.000007 -0.000003 222.872406 -232.671487 195.526418 -0.000004 -0.000007 -10.471798 0.519982 1.495052 0.681227 -0.000001 -0.000002 -12.281898 -11.258027 18.428959 -1.163000 2.273398 0.176707 -2.518001 -73.185463 -133.157407 -60.965524 0.000001 -0.000005 -20.456396 -148.032452 3.555783 101.544976 -0.000006 -0.000007 -16.635300 57.648579 -1.688919 30.107976 -1.914802 0.018105 -2.699292 59.571073 202.962049 126.235652 0.000004 -0.000004 -20.148907 182.229720 61.634534 -81.189741 -0.000001 0.000000 -16.838297 -27.499060 3.268252 8.524851
-13.052198 -19.734798 31.878101 426.114356 39.754614 -4.989887 -0.672998 0.623892 5.369211 25.036929 15.449857 -3.037660 0.000000 0.000001 4.415001 -1.353960 -5.583818 -0.666452 -0.000002 -0.000005 10.273303 -35.701184 -11.182459 -1.883665 -0.000005 -0.000007 2.173891 -3.761582 -6.564312 -5.949912 2.359902 -0.565203 5.928104 11.817703 -1.799299 -19.426103 5.443700 0.000004 -0.000002 131.870831 187.872508 -302.672566 -0.000003 0.000004 -10.615795 232.784540 -116.260024 218.651950 0.000005 0.000002 -13.110294 -248.936572 3.902619 42.705266 -2.636599 -1.718808 6.889699 14.669988 9.882123 -19.788989 -4.139100 0.000004 -0.000002 226.661385 -231.808779 192.537049 0.000001 -0.000005 -10.471804 -0.433644 1.268345 0.520988 -0.000006 -0.000004 -12.281893 -11.775424 18.469795 -1.225061 2.273401 0.176701 -2.518002 -72.032589 -133.381478 -59.511725 -0.000002 0.000000 -20.456398 -147.126947 3.598810 101.862340 -0.000005 -0.000003 -16.635296 56.507842 -1.339104 29.802694 -1.914795 0.018106 -2.699296 59.124972 202.779847 125.810555 0.000001 -0.000006 -20.148903 187.591473 58.084673 -86.633491 0.000004 -0.000005 -16.838303 -31.868624 2.303420 7.213647
-13.389898 -19.882093 31.595600 427.839498 39.574645 -5.928419 -0.673003 0.623897 5.369210 25.939860 16.226583 -3.484631 0.000002 0.000001 4.415005 -1.769728 -5.654259 -0.674895 -0.000004 0.000003 10.273304 -36.110315 -11.551420 -0.877242 -0.000003 0.000005 2.173911 -3.284664 -6.055828 -6.185322 2.359900 -0.565200 5.928100 12.032845 -1.725419 -18.417250 5.443696 0.000002 -0.000003 130.672488 188.130321 -303.599368 -0.000005 0.000001 -10.615793 233.238447 -115.762158 219.353069 0.000005 0.000000 -13.110301 -249.170929 3.859075 42.690906 -2.636605 -1.718804 6.889706 16.337997 9.797043 -20.612686 -4.139097 0.000003 0.000000 231.343097 -231.756023 189.039228 0.000000 -0.000002 -10.471797 -2.480587 1.111628 0.356684 -0.000001 0.000002 -12.281895 -12.365485 18.105759 -1.435811 2.273396 0.176697 -2.518001 -70.926576 -133.540717 -58.222602 0.000003 -0.000005 -20.456394 -146.240456 3.860702 102.183947 -0.000001 -0.000003 -16.635298 55.218453 -0.965829 29.392869 -1.914798 0.018101 -2.699292 58.523076 202.443310 125.340952 0.000008 -0.000003 -20.148905 191.882922 53.919265 -90.864226 -0.000001 -0.000002 -16.838301 -36.282836 1.523873 5.525632
-13.722199 -20.022797 31.313904 429.471722 39.311963 -6.824194 -0.673003 0.623898 5.369205 26.780779 17.036336 -3.967493 0.000002 -0.000004 4.414996 -2.158288 -5.717559 -0.682295 -0.000002 -0.000006 10.273304 -35.876368 -11.920639 0.043911 -0.000000 -0.000006 2.173891 -3.319138 -5.741184 -6.211813 2.359903 -0.565207 5.928099 12.342324 -1.703447 -17.452431 5.443697 -0.000002 0.000000 129.324714 188.522715 -304.354705 -0.000000 0.000001 -10.615794 233.524004 -115.161566 220.049816 0.000012 -0.000002 -13.110302 -249.353486 3.826873 42.679093 -2.636602 -1.718813 6.889700 18.273454 11.594095 -20.701110 -4.139100 -0.000002 -0.000004 225.551793 -228.429120 195.050805 0.000003 -0.000001 -10.471798 1.263315 1.260386 -0.173492 -0.000005 0.000002 -12.281898 -12.290054 17.671178 -1.726969 2.273397 0.176701 -2.518002 -69.919806 -133.660914 -57.065145 0.000002 -0.000000 -20.456396 -145.390631 4.289578 102.502636 -0.000003 -0.000001 -16.635298 53.842542 -0.586376 28.879010 -1.914799 0.018106 -2.699298 57.797628 202.020986 124.847170 0.000006 0.000001 -20.148901 195.411617 48.941734 -94.243859 0.000004 -0.000002 -16.838299 -40.934037 0.707974 3.250515
